<svg width="40" height="39" viewBox="0 0 40 39" fill="none" xmlns="http://www.w3.org/2000/svg">
<ellipse cx="19.7898" cy="19.2118" rx="19.7898" ry="19.2118" transform="matrix(-1 0 0 1 39.5796 0)" fill="black"/>
<g clip-path="url(#clip0_236_2)">
<path d="M20 18C21.5155 18 22.969 17.4205 24.0406 16.3891C25.1122 15.3576 25.7143 13.9587 25.7143 12.5C25.7143 11.0413 25.1122 9.64236 24.0406 8.61091C22.969 7.57946 21.5155 7 20 7C18.4845 7 17.031 7.57946 15.9594 8.61091C14.8878 9.64236 14.2857 11.0413 14.2857 12.5C14.2857 13.9587 14.8878 15.3576 15.9594 16.3891C17.031 17.4205 18.4845 18 20 18ZM17.9598 20.0625C13.5625 20.0625 10 23.4914 10 27.7238C10 28.4285 10.5938 29 11.3259 29H28.6741C29.4062 29 30 28.4285 30 27.7238C30 23.4914 26.4375 20.0625 22.0402 20.0625H17.9598Z" fill="white"/>
</g>
<defs>
<clipPath id="clip0_236_2">
<rect width="20" height="22" fill="white" transform="translate(10 7)"/>
</clipPath>
</defs>
</svg>
