<svg width="38" height="38" viewBox="0 0 38 38" fill="none" xmlns="http://www.w3.org/2000/svg">
<circle cx="19" cy="19" r="19" transform="matrix(-1 0 0 1 38 0)" fill="black"/>
<g clip-path="url(#clip0_236_4)">
<path d="M15.4997 22C19.0903 22 21.9997 19.5375 21.9997 16.5C21.9997 13.4625 19.0903 11 15.4997 11C11.909 11 8.99967 13.4625 8.99967 16.5C8.99967 17.7063 9.45905 18.8219 10.2372 19.7312C10.1278 20.025 9.9653 20.2844 9.79342 20.5031C9.64342 20.6969 9.4903 20.8469 9.3778 20.95C9.32155 21 9.27467 21.0406 9.24342 21.0656C9.2278 21.0781 9.2153 21.0875 9.20905 21.0906L9.2028 21.0969C9.03092 21.225 8.95592 21.45 9.02467 21.6531C9.09342 21.8563 9.28405 22 9.49967 22C10.1809 22 10.8684 21.825 11.4403 21.6094C11.7278 21.5 11.9965 21.3781 12.2309 21.2531C13.1903 21.7281 14.3059 22 15.4997 22ZM22.9997 16.5C22.9997 20.0094 19.9028 22.6531 16.234 22.9688C16.9934 25.2938 19.5122 27 22.4997 27C23.6934 27 24.809 26.7281 25.7715 26.2531C26.0059 26.3781 26.2715 26.5 26.559 26.6094C27.1309 26.825 27.8184 27 28.4997 27C28.7153 27 28.909 26.8594 28.9747 26.6531C29.0403 26.4469 28.9684 26.2219 28.7934 26.0938L28.7872 26.0875C28.7809 26.0812 28.7684 26.075 28.7528 26.0625C28.7215 26.0375 28.6747 26 28.6184 25.9469C28.5059 25.8437 28.3528 25.6938 28.2028 25.5C28.0309 25.2813 27.8684 25.0187 27.759 24.7281C28.5372 23.8219 28.9965 22.7063 28.9965 21.4969C28.9965 18.5969 26.3434 16.2187 22.9778 16.0125C22.9903 16.1719 22.9965 16.3344 22.9965 16.4969L22.9997 16.5Z" fill="white"/>
</g>
<defs>
<clipPath id="clip0_236_4">
<rect width="20" height="16" fill="white" transform="translate(9 11)"/>
</clipPath>
</defs>
</svg>
