<svg width="38" height="38" viewBox="0 0 38 38" fill="none" xmlns="http://www.w3.org/2000/svg">
<circle cx="19" cy="19" r="19" transform="matrix(-1 0 0 1 38 0)" fill="black"/>
<g clip-path="url(#clip0_236_3)">
<path d="M19 9C18.2889 9 17.7143 9.58652 17.7143 10.3125V11.1C14.7813 11.707 12.5715 14.3566 12.5715 17.5312V18.3023C12.5715 20.2301 11.8764 22.0922 10.6228 23.5359L10.3255 23.8764C9.98797 24.2619 9.90761 24.8156 10.1125 25.2873C10.3174 25.759 10.7795 26.0625 11.2857 26.0625H26.7143C27.2206 26.0625 27.6786 25.759 27.8875 25.2873C28.0965 24.8156 28.0121 24.2619 27.6746 23.8764L27.3773 23.5359C26.1237 22.0922 25.4286 20.2342 25.4286 18.3023V17.5312C25.4286 14.3566 23.2188 11.707 20.2857 11.1V10.3125C20.2857 9.58652 19.7112 9 19 9ZM20.8201 29.233C21.3023 28.7408 21.5715 28.0723 21.5715 27.375H19H16.4286C16.4286 28.0723 16.6978 28.7408 17.1799 29.233C17.6621 29.7252 18.317 30 19 30C19.6831 30 20.338 29.7252 20.8201 29.233Z" fill="white"/>
</g>
<defs>
<clipPath id="clip0_236_3">
<rect width="18" height="21" fill="white" transform="translate(10 9)"/>
</clipPath>
</defs>
</svg>
